<?xml version='1.0' encoding='iso-8859-1'?>
<!DOCTYPE svg PUBLIC '-//W3C//DTD SVG 1.1//EN' 'http://www.w3.org/Graphics/SVG/1.1/DTD/svg11.dtd'>
<svg version="1.1" xmlns="http://www.w3.org/2000/svg" viewBox="0 0 295.85 295.85" xmlns:xlink="http://www.w3.org/1999/xlink" enable-background="new 0 0 295.85 295.85">
  <g>
    <path d="m191.901,59.605l-20.016,18.084-13.335,1.524c-3.265,0.373-6.331,1.758-8.77,3.961l-33.15,29.951 17.594,4.522c6.338,1.629 11.663,5.629 14.992,11.263 2.611,4.417 3.743,9.423 3.328,14.434l28.409-25.668c2.438-2.203 4.126-5.114 4.828-8.324l2.865-13.115 20.014-18.082c5.122-4.629 5.523-12.533 0.896-17.655-4.628-5.122-12.534-5.521-17.655-0.895z"/>
    <circle cx="101.138" cy="27.597" r="27.59"/>
    <path d="m240.631,63.032l-13.879,6.666c-0.984,0.48-1.764,1.398-2.014,2.551-0.434,1.997 0.834,3.968 2.831,4.401l15.046,3.266c1.886,0.41 3.923,0.219 5.797-0.681 4.474-2.149 6.359-7.518 4.211-11.992s-7.518-6.36-11.992-4.211z"/>
    <path d="m238.977,23.166c1.438-4.751-1.248-9.767-5.998-11.205-4.751-1.438-9.767,1.248-11.205,5.998l-4.46,14.736c-0.311,1.05-0.161,2.245 0.52,3.208 1.18,1.669 3.489,2.065 5.158,0.885l12.572-8.888c1.576-1.113 2.811-2.743 3.413-4.734z"/>
    <path d="m284.161,13.647c-3.928-3.034-9.572-2.31-12.606,1.618l-9.412,12.185c-0.664,0.871-0.949,2.041-0.655,3.184 0.509,1.979 2.526,3.172 4.505,2.663l14.912-3.833c1.869-0.48 3.604-1.565 4.875-3.21 3.033-3.929 2.309-9.573-1.619-12.607z"/>
    <path d="m131.238,129.27l-41.877-10.764-15.627-44.898 23.049,34.417 6.41,1.647c0.756-1.052 1.615-2.035 2.596-2.922l11.384-10.286c0,0-4.91-11.301-6.871-16.396-2.146-5.577-5.498-10.876-11.501-13.168l-31.051-11.855c-9.616-3.672-20.388,1.147-24.06,10.763l-33.959,88.94c-2.367,4.845-2.042,10.804 1.365,15.457l31.407,42.881-32.525,60.673c-3.915,7.301-1.169,16.393 6.133,20.307 2.256,1.21 4.682,1.783 7.074,1.783 5.35,0 10.528-2.87 13.233-7.916l36.99-69c2.729-5.089 2.294-11.292-1.118-15.95l-20.188-30.385c-0.85-1.28 0.067-2.991 1.604-2.991 0.573,0 1.116,0.255 1.482,0.696l34.967,42.119-25.177,62.382c-3.103,7.688 0.303,16.689 7.953,19.883 1.893,0.79 3.852,1.164 5.779,1.164 5.936,0 11.557-3.548 13.915-9.39l28.654-71c2.039-5.055 1.178-10.817-2.252-15.054l-36.994-45.837-8.375-1.896c-7.876-2.024-14.191-7.776-16.947-15.413-0.3-0.833-0.619-2.237-0.712-3.118l-5.305-50.67 17.256,49.58c1.377,3.954 4.639,6.956 8.694,7.998l44.943,12.432c1.391,0.358 2.786,0.466 4.141,0.354 5.158-0.426 13.142-4.053 14.503-9.349 1.721-6.686-2.306-13.499-8.993-15.218z"/>
  </g>
</svg>
