<?xml version='1.0' encoding='iso-8859-1'?>
<!DOCTYPE svg PUBLIC '-//W3C//DTD SVG 1.1//EN' 'http://www.w3.org/Graphics/SVG/1.1/DTD/svg11.dtd'>
<svg version="1.1" xmlns="http://www.w3.org/2000/svg" viewBox="0 0 293.289 293.289" xmlns:xlink="http://www.w3.org/1999/xlink" enable-background="new 0 0 293.289 293.289">
  <g>
    <circle cx="102.791" cy="25.907" r="25.907"/>
    <path d="m229.303,2.809c-5.538,0-9.839,5.297-8.114,11.1 1.069,3.598 4.565,5.763 8.316,5.904 2.955,0.111 5.298,2.653 5.084,5.679-0.199,2.811-2.691,4.915-5.508,4.915h-33.965c-1.298-2.134-3.237-3.906-5.703-4.973-5.793-2.504-12.433-0.273-15.624,4.973h-26.908c-4.527,0-8.481,3.417-8.773,7.934-0.32,4.95 3.6,9.066 8.482,9.066h19.698l-9.453,21.851c0,0-21.255-5.337-34.333-8.49-1.847-0.445-3.735-0.67-5.635-0.67h-29.68c-9.665,0-17.501,7.835-17.501,17.501v134.312l-26.863,60.661c-3.155,7.659 0.495,16.427 8.155,19.583 1.869,0.771 3.805,1.135 5.708,1.135 5.896,0 11.489-3.5 13.875-9.29l26-63.105c0.666-1.617 1.045-3.339 1.118-5.087l1.924-46.704c0.039-0.958 0.827-1.714 1.786-1.714 0.75,0 1.42,0.468 1.678,1.172l15.145,41.293-11.718,65.324c-1.716,8.104 1.347,16.065 9.452,17.782 1.048,0.222 2.093,0.328 3.122,0.328 6.937,0 13.165-4.839 14.66-11.895l14.727-69.546c0.584-2.758 0.379-5.625-0.592-8.272l-14.235-38.713-34.035-8.945c-7.876-2.024-14.191-7.776-16.947-15.413-0.3-0.833-0.619-2.237-0.712-3.118l-5.305-50.67 17.256,49.581c1.377,3.954 4.64,6.956 8.694,7.998l48.369,12.432c1.391,0.357 2.786,0.466 4.141,0.354 5.319-0.439 10-4.282 11.195-9.849 1.422-6.621-2.932-13.13-9.49-14.815l-41.5-10.667-15.626-44.9 23.049,34.417 13.179,3.387v-24.78l25.251,6.175c0.992,0.242 1.988,0.359 2.973,0.359 4.889,0 9.454-2.883 11.469-7.539l17.938-41.463h35.23c12.076,0 22.374-9.372 22.83-21.439 0.478-12.687-9.703-23.159-22.284-23.159z"/>
  </g>
</svg>
