<?xml version='1.0' encoding='iso-8859-1'?>
<!DOCTYPE svg PUBLIC '-//W3C//DTD SVG 1.1//EN' 'http://www.w3.org/Graphics/SVG/1.1/DTD/svg11.dtd'>
<svg version="1.1" xmlns="http://www.w3.org/2000/svg" viewBox="0 0 314.758 314.758" xmlns:xlink="http://www.w3.org/1999/xlink" enable-background="new 0 0 314.758 314.758">
  <g>
    <circle cx="96.555" cy="25.907" r="25.907"/>
    <path d="m272.613,75.379h-8.798c5.632-4.833 9.089-11.338 9.089-18.5 0-14.912-14.961-27-33.416-27-0.254,0-0.504,0.011-0.756,0.015-2.353-8.946-10.049-15.515-19.202-15.515-11.023,0-19.958,9.514-19.958,21.25 0,2.574 0.451,5.029 1.239,7.313-0.412-0.025-0.82-0.063-1.239-0.063-11.322,0-20.5,9.178-20.5,20.5 0,4.487 1.458,8.624 3.904,12h-7.747c-4.636,0-8.661,3.573-8.818,8.206-0.106,3.141 1.497,5.909 3.947,7.466l-9.1,9.123-1.518-11.562c-0.552-15.818-13.632-28.542-29.563-28.542h-67.242c-16.229,0-29.498,13.203-29.581,29.434v91.832c-0.034,6.903 5.073,12.527 11.977,12.563 0.021,0 0.042,0 0.063,0 6.874,0 12.464-5.556 12.499-12.438v-93.68c0-1.497 1.213-2.71 2.71-2.71 1.497,0 2.71,1.213 2.71,2.71l.006,211.977c0,8.525 7.111,15.389 15.725,14.983 8.068-0.38 14.275-7.33 14.275-15.407v-116.234c0-1.788 1.45-3.238 3.238-3.238 1.788,0 3.238,1.45 3.238,3.238v116.234c0,8.077 6.207,15.027 14.275,15.407 8.614,0.406 15.725-6.458 15.725-14.983l-.269-211.974c-0.002-1.498 1.212-2.714 2.71-2.714h0.102c1.377,0 2.535,1.032 2.692,2.4l4.743,41.141c0.62,4.723 3.87,8.683 8.381,10.212 1.314,0.445 2.668,0.661 4.011,0.661 3.268,0 6.468-1.282 8.852-3.673l43.32-43.433h68.566c4.882,0 8.802-4.116 8.482-9.066-0.292-4.517-4.245-7.933-8.772-7.933z"/>
  </g>
</svg>
